<?xml version="1.0" encoding="utf-8"?>
<!-- Generator: Adobe Illustrator 18.0.0, SVG Export Plug-In . SVG Version: 6.00 Build 0)  -->
<svg version="1.2" baseProfile="tiny" id="conic_1_"
	 xmlns="http://www.w3.org/2000/svg" xmlns:xlink="http://www.w3.org/1999/xlink" x="0px" y="0px" width="1296px" height="600px"
	 viewBox="0 0 1296 600" xml:space="preserve">
<g id="conic">
	<path fill-rule="evenodd" fill="#070707" d="M561.902,313.725c15.12,0,28.31,4.182,41.177,11.903l3.86-31.527
		c-9.973-6.112-23.162-11.259-48.255-11.259c-51.794,0-78.173,37.639-78.173,82.999c0,44.716,26.379,82.999,78.173,82.999
		c25.736,0,38.282-5.469,48.255-11.903l-3.539-30.562c-13.19,7.721-26.379,11.903-41.499,11.903
		c-28.631,0-44.073-21.232-44.073-52.437C517.829,334.314,533.271,313.725,561.902,313.725z M415.5,264h36v-37.5h-36V264z
		 M487.5,189v-76.5h-375v375l339,0V291.75h-36V451.5h-267v-303h303V189H487.5z M991.328,445.622h36.674V285.737h-36.674V445.622z
		 M991.328,258.071h36.674v-37.639h-36.674V258.071z M1138.336,418.278c-28.631,0-44.073-21.232-44.073-52.437
		c0-31.527,15.442-52.115,44.073-52.115c15.12,0,28.31,4.182,41.178,11.903l3.86-31.527c-9.973-6.112-23.162-11.259-48.255-11.259
		c-51.794,0-78.173,37.639-78.173,82.999c0,44.716,26.379,82.999,78.173,82.999c25.736,0,38.282-5.469,48.255-11.903l-3.539-30.562
		C1166.645,414.096,1153.456,418.278,1138.336,418.278z M703.762,282.842c-50.829,0-80.425,37.961-80.425,82.999
		c0,45.36,29.596,82.999,80.425,82.999s80.425-37.639,80.425-82.999C784.187,320.803,754.59,282.842,703.762,282.842z
		 M703.762,418.278c-27.344,0-43.108-20.589-43.108-52.437c0-31.527,15.763-52.115,43.108-52.115
		c27.345,0,43.108,20.589,43.108,52.115C746.87,397.689,731.106,418.278,703.762,418.278z M887.436,282.842
		c-13.833,0-28.31,5.147-40.534,14.798l-1.287-11.903h-32.813v159.885h36.352V329.489c7.721-10.294,19.624-15.763,34.422-15.763
		c24.771,0,34.744,14.155,34.744,45.36v86.537h36.352v-86.537C954.672,313.725,936.335,282.842,887.436,282.842z"/>
</g>
</svg>
