<?xml version="1.0" encoding="utf-8"?>
<!-- Generator: Adobe Illustrator 18.0.0, SVG Export Plug-In . SVG Version: 6.00 Build 0)  -->
<!DOCTYPE svg PUBLIC "-//W3C//DTD SVG 1.1//EN" "http://www.w3.org/Graphics/SVG/1.1/DTD/svg11.dtd">
<svg version="1.1" id="laptop_1_" xmlns="http://www.w3.org/2000/svg" xmlns:xlink="http://www.w3.org/1999/xlink" x="0px" y="0px"
	 viewBox="0 0 286.5 164.25" style="enable-background:new 0 0 286.5 164.25;" xml:space="preserve">
<style type="text/css">
	.st0{fill-rule:evenodd;clip-rule:evenodd;fill:url(#SVGID_1_);}
	.st1{fill-rule:evenodd;clip-rule:evenodd;fill:#202020;}
	.st2{fill-rule:evenodd;clip-rule:evenodd;fill:#ECECEC;}
	.st3{fill-rule:evenodd;clip-rule:evenodd;fill:#B9B9B9;}
	.st4{fill:#9F9F9F;}
	.st5{fill-rule:evenodd;clip-rule:evenodd;fill:#868686;}
	.st6{fill:#070707;}
	.st7{opacity:0.349;}
	.st8{fill-rule:evenodd;clip-rule:evenodd;fill:url(#SVGID_2_);}
	.st9{fill-rule:evenodd;clip-rule:evenodd;fill:#52C8FF;}
	.st10{fill-rule:evenodd;clip-rule:evenodd;fill:#1F95CC;}
</style>
<g id="base_1_">
	<g id="laptopShadow">
		<g>
			<linearGradient id="SVGID_1_" gradientUnits="userSpaceOnUse" x1="144" y1="164.25" x2="144" y2="145.5">
				<stop  offset="0" style="stop-color:#FFFFFF;stop-opacity:0"/>
				<stop  offset="1" style="stop-color:#000000"/>
			</linearGradient>
			<polygon class="st0" points="267.75,145.5 5.25,149.25 15.75,164.25 282.75,164.25 			"/>
		</g>
	</g>
	<g id="laptopBase">
		<g>
			<path class="st1" d="M5.25,144.75v3.75c0,2.071,1.679,3.75,3.75,3.75h255c2.071,0,3.75-1.679,3.75-3.75v-3.75H5.25z"/>
		</g>
	</g>
	<g id="keyboardFrame">
		<g>
			<polygon class="st2" points="245.25,116.25 31.5,116.25 5.25,142.5 5.25,144.75 267.75,144.75 267.75,142.5 			"/>
		</g>
	</g>
	<g id="touchPad">
		<g>
			<polygon class="st3" points="114.776,142.75 118.072,135.5 154.928,135.5 158.224,142.75 			"/>
		</g>
		<g>
			<path class="st4" d="M154.606,136l2.841,6.25h-41.894l2.841-6.25H154.606 M155.25,135h-37.5l-3.75,8.25h45L155.25,135L155.25,135
				z"/>
		</g>
	</g>
	<g id="touchPadShadow">
		<g>
			<polygon class="st5" points="154.5,135.75 120,135.75 118.5,135.75 117.75,137.25 117.833,137.25 115.5,142.5 117,142.5 
				119.333,137.25 155.25,137.25 			"/>
		</g>
	</g>
	<g id="keyboard">
		<g>
			<polygon class="st1" points="240.75,118.5 35.25,118.5 20.25,134.25 254.25,134.25 			"/>
		</g>
	</g>
	<g id="keyboardShadow">
		<g>
			<polygon class="st6" points="243,121.5 240,118.5 38.25,118.5 35.25,118.5 32.25,121.5 32.393,121.5 20.25,134.25 23.25,134.25 
				35.393,121.5 			"/>
		</g>
	</g>
	<g id="screenGlow" class="st7">
		<g>
			<linearGradient id="SVGID_2_" gradientUnits="userSpaceOnUse" x1="137.25" y1="134.25" x2="137.25" y2="116.25">
				<stop  offset="0" style="stop-color:#FFFFFF;stop-opacity:0"/>
				<stop  offset="1" style="stop-color:#52C8FF"/>
			</linearGradient>
			<polygon class="st8" points="245.25,116.25 31.5,116.25 13.5,134.25 261,134.25 			"/>
		</g>
	</g>
</g>
<g id="top_1_">
	<g id="screenFrame">
		<g>
			<path class="st1" d="M241.5,0H35.25c-2.071,0-3.75,1.679-3.75,3.75v112.5h213.75V3.75C245.25,1.679,243.571,0,241.5,0z"/>
		</g>
	</g>
	<g id="screen">
		<g>
			<rect x="42.75" y="11.25" class="st9" width="191.25" height="93.75"/>
		</g>
	</g>
	<g id="screenShadow">
		<g>
			<polygon class="st10" points="42.75,11.25 42.75,105 45,105 45,13.5 234,13.5 234,11.25 			"/>
		</g>
	</g>
</g>
</svg>
