<?xml version="1.0" encoding="utf-8"?>
<!-- Generator: Adobe Illustrator 18.0.0, SVG Export Plug-In . SVG Version: 6.00 Build 0)  -->
<svg version="1.2" baseProfile="tiny" id="headphone_1_"
	 xmlns="http://www.w3.org/2000/svg" xmlns:xlink="http://www.w3.org/1999/xlink" x="0px" y="0px" viewBox="0 0 135 152.25"
	 xml:space="preserve">
<g id="cable">
	<path fill="#067CB3" d="M125.25,138.75c0,0,0-11.251,0-11.25c0,0.02-0.75-0.75-0.75-0.75H69v-15c0,0,55.542,0,55.5,0
		c-0.011,0,0.75-0.75,0.75-0.75s0-0.082,0-0.047c0,0.015,0-14.203,0-14.203v-1.5V88.5h-3.75v6.75l1.5,1.5v12.75c0,0-55.38,0-55.5,0
		c-0.028,0-0.727,0.724-0.75,0.75c-0.012,0.014,0,18.042,0,18c0-0.054,0.75,0.75,0.75,0.75H123v9.75l-0.75,0.75v5.25l0.75,0.75h2.25
		l0.75-0.75v-5.25L125.25,138.75z"/>
</g>
<g id="Rectangle_1">
	<path fill-rule="evenodd" fill="#004980" d="M125.25,91.5h-1.5v3h1.5V91.5z M124.5,143.25V144h1.5v-0.75H124.5z"/>
</g>
<g id="audioJack">
	<polygon fill-rule="evenodd" fill="#FFCF68" points="123,145.5 123,150.75 123.75,152.25 124.5,152.25 125.25,150.75 125.25,145.5 
			"/>
</g>
<g id="audioJackSeparators">
	<path fill-rule="evenodd" fill="#CC9C35" d="M123.75,148.5h1.5v-0.75h-1.5V148.5z M123.75,150h1.5v-0.75h-1.5V150z M123.75,146.25
		V147h1.5v-0.75H123.75z"/>
</g>
<g id="headband">
	<path fill-rule="evenodd" fill="#070707" d="M64.5,0C9.135,0,6.75,63,6.75,63v18.75h6V63c0,0-0.016-57,51.75-57
		c57.765,0,57.75,57,57.75,57v18.75h6V63C128.25,63,127.8,0,64.5,0z"/>
</g>
<g id="headbandLining">
	<path fill-rule="evenodd" fill="#6D6D6D" d="M67.5,4.5c-57,0-57,63.75-57,63.75h2.25c0,0-0.016-61.5,54.75-61.5
		c54.765,0,54.75,61.5,54.75,61.5h2.25C124.5,68.25,124.5,4.5,67.5,4.5z"/>
</g>
<g id="cans">
	<path fill-rule="evenodd" fill="#070707" d="M24,60c-3.653,0-6.832,1.792-7.5,5.25c-1.17-0.039-1.119,0.017-2.25,0
		C6.826,81.934,6.07,82.543,6,82.5c0.15,0.042,10.674,16.337,10.64,16.429C17.308,102.387,20.347,105,24,105
		c4.142,0,7.5-3.358,7.5-7.5v-30C31.5,63.358,28.142,60,24,60z M120.75,65.25c-1.131,0.017-1.08-0.039-2.25,0
		c-0.668-3.458-3.847-5.25-7.5-5.25c-4.142,0-7.5,3.358-7.5,7.5v30c0,4.142,3.358,7.5,7.5,7.5c3.653,0,6.692-2.613,7.36-6.071
		C118.326,98.837,128.849,82.542,129,82.5C128.93,82.543,128.174,81.934,120.75,65.25z"/>
</g>
<g id="reflection">
	<path fill-rule="evenodd" fill="#3A3A3A" d="M6.75,81.75h9.75v-16.5h-2.25L6.75,81.75z M120.75,65.25h-2.25v16.5h9.75L120.75,65.25
		z"/>
</g>
</svg>
