<?xml version="1.0" encoding="utf-8"?>
<!-- Generator: Adobe Illustrator 18.0.0, SVG Export Plug-In . SVG Version: 6.00 Build 0)  -->
<svg version="1.2" baseProfile="tiny" id="headphone_1_"
	 xmlns="http://www.w3.org/2000/svg" xmlns:xlink="http://www.w3.org/1999/xlink" x="0px" y="0px" viewBox="0 0 135 162.75"
	 xml:space="preserve">
<g id="shadow">
	<path fill-rule="evenodd" fill="#9F9F9F" d="M24.375,99C10.913,99,0,101.518,0,104.625c0,3.107,10.913,5.625,24.375,5.625
		s24.375-2.518,24.375-5.625C48.75,101.518,37.837,99,24.375,99z M110.625,99.75c-13.462,0-24.375,2.518-24.375,5.625
		c0,3.107,10.913,5.625,24.375,5.625S135,108.482,135,105.375C135,102.268,124.087,99.75,110.625,99.75z"/>
</g>
<g id="cable">
	<path fill-rule="evenodd" fill="#067CB3" d="M123,138c-4.548-2.222-14.768,2.724-24,5.25c-11.714,3.206-15.403,3.851-20.25,0.75
		c-3.893-2.49,0.89-11.193,11.992-14.407c13.675-3.958,32.727-2.159,31.264-17.134l0.244,0.041l-0.75-9.75h0.75V97.5v-5.25
		l-3.75,5.25v5.25h1.5c0,0,0.75,2.534,0.75,5.25c0,4.37-0.542,9.583-3,12c-1.386,1.363-2.899,2.349-4.5,3
		c-6.23,2.535-20.273,3.195-27,6.75c-19.194,10.145-9.095,16.932-5.25,18c6.54,1.816,7.991,0.5,18.75-3
		c9.464-3.079,18.829-7.425,22.5-5.25c2.985,1.768-4.659,8.989-10.518,13.936l-1.482-1.186L105,157.5l0.846,0.677
		c-0.057,0.044-0.096,0.073-0.096,0.073l1.5,1.5c0,0,0.1-0.079,0.282-0.224l1.218,0.974l5.25-5.25l-0.728-0.582
		C119.826,148.822,128.661,139.797,123,138z"/>
</g>
<g id="cableShadow">
	<rect x="120.75" y="99.75" fill-rule="evenodd" fill="#004980" width="1.5" height="3"/>
</g>
<g id="audioJack">
	<polygon fill-rule="evenodd" fill="#FFDB4D" points="106.5,157.5 102.75,160.5 102,162.75 104.25,162 108,159 	"/>
</g>
<g id="audioJackShadow">
	<path fill="#CCA81A" d="M103.5,160.5l0.75,0.75l0.75-0.75l-0.75-0.75L103.5,160.5z M105.75,158.25L105,159l0.75,0.75l0.75-0.75
		L105.75,158.25z"/>
</g>
<g id="headband">
	<path fill-rule="evenodd" fill="#070707" d="M64.5,0C9.135,0,6.75,63,6.75,63v18.75h6V63c0,0-0.016-57,51.75-57
		c57.765,0,57.75,57,57.75,57v18.75h6V63C128.25,63,127.8,0,64.5,0z"/>
</g>
<g id="headbandLining">
	<path fill-rule="evenodd" fill="#6D6D6D" d="M67.5,4.5c-57,0-57,63.75-57,63.75h2.25c0,0-0.016-61.5,54.75-61.5
		c54.765,0,54.75,61.5,54.75,61.5h2.25C124.5,68.25,124.5,4.5,67.5,4.5z"/>
</g>
<g id="reflection">
	<path fill-rule="evenodd" fill="#070707" d="M24,60c-3.653,0-6.832,1.792-7.5,5.25c-1.17-0.039-1.119,0.017-2.25,0
		C6.826,81.934,6.07,82.543,6,82.5c0.15,0.042,10.674,16.337,10.64,16.429C17.308,102.387,20.347,105,24,105
		c4.142,0,7.5-3.358,7.5-7.5v-30C31.5,63.358,28.142,60,24,60z M120.75,65.25c-1.131,0.017-1.08-0.039-2.25,0
		c-0.668-3.458-3.847-5.25-7.5-5.25c-4.142,0-7.5,3.358-7.5,7.5v30c0,4.142,3.358,7.5,7.5,7.5c3.653,0,6.692-2.613,7.36-6.071
		C118.326,98.837,128.849,82.542,129,82.5C128.93,82.543,128.174,81.934,120.75,65.25z"/>
</g>
<g id="can">
	<path fill-rule="evenodd" fill="#3A3A3A" d="M6.75,81.75h9.75v-16.5h-2.25L6.75,81.75z M120.75,65.25h-2.25v16.5h9.75L120.75,65.25
		z"/>
</g>
</svg>
