<?xml version="1.0" encoding="utf-8"?>
<!-- Generator: Adobe Illustrator 18.0.0, SVG Export Plug-In . SVG Version: 6.00 Build 0)  -->
<svg version="1.2" baseProfile="tiny" id="laptop_1_"
	 xmlns="http://www.w3.org/2000/svg" xmlns:xlink="http://www.w3.org/1999/xlink" x="0px" y="0px" viewBox="0 0 273 148.5"
	 xml:space="preserve">
<g id="base_1_">
	<g id="laptopBase">
		<path fill-rule="evenodd" fill="#202020" d="M5.25,141v3.75c0,2.071,1.679,3.75,3.75,3.75h255c2.071,0,3.75-1.679,3.75-3.75V141
			H5.25z"/>
	</g>
	<g id="keyboardFrame">
		<polygon fill-rule="evenodd" fill="#ECECEC" points="245.25,112.5 31.5,112.5 5.25,138.75 5.25,141 267.75,141 267.75,138.75 		
			"/>
	</g>
	<g id="touchPad">
		<g>
			<polygon fill-rule="evenodd" fill="#B9B9B9" points="114.776,139 118.072,131.75 154.928,131.75 158.224,139 			"/>
		</g>
		<g>
			<path fill="#9F9F9F" d="M154.606,132.25l2.841,6.25h-41.894l2.841-6.25H154.606 M155.25,131.25h-37.5L114,139.5h45L155.25,131.25
				L155.25,131.25z"/>
		</g>
	</g>
	<g id="touchPadShadow">
		<polygon fill-rule="evenodd" fill="#868686" points="154.5,132 120,132 118.5,132 117.75,133.5 117.833,133.5 115.5,138.75 
			117,138.75 119.333,133.5 155.25,133.5 		"/>
	</g>
	<g id="keyboard">
		<polygon fill-rule="evenodd" fill="#202020" points="240.75,114.75 35.25,114.75 20.25,130.5 254.25,130.5 		"/>
	</g>
	<g id="keyboardShadow">
		<polygon fill="#070707" points="243,117.75 240,114.75 38.25,114.75 35.25,114.75 32.25,117.75 32.393,117.75 20.25,130.5 
			23.25,130.5 35.393,117.75 		"/>
	</g>
</g>
<g id="top_1_">
	<g id="screenFrame">
		<path fill-rule="evenodd" fill="#202020" d="M241.5,0H35.25c-2.071,0-3.75,1.679-3.75,3.75V112.5h213.75V3.75
			C245.25,1.679,243.571,0,241.5,0z"/>
	</g>
	<g id="screen">
		<rect x="42.75" y="11.25" fill-rule="evenodd" fill="#52C8FF" width="191.25" height="90"/>
	</g>
	<g id="screenShadow">
		<polygon fill-rule="evenodd" fill="#1F95CC" points="42.75,11.25 42.75,101.25 45,101.25 45,13.5 234,13.5 234,11.25 		"/>
	</g>
</g>
</svg>
