<?xml version="1.0" encoding="utf-8"?>
<!-- Generator: Adobe Illustrator 18.0.0, SVG Export Plug-In . SVG Version: 6.00 Build 0)  -->
<svg version="1.2" baseProfile="tiny" id="laptop_1_"
	 xmlns="http://www.w3.org/2000/svg" xmlns:xlink="http://www.w3.org/1999/xlink" x="0px" y="0px" viewBox="0 0 375 375"
	 xml:space="preserve">
<g id="base_1_">
	<g id="laptopBase">
		<path fill-rule="evenodd" fill="#202020" d="M56.25,254.25V258c0,2.071,1.679,3.75,3.75,3.75h255c2.071,0,3.75-1.679,3.75-3.75
			v-3.75H56.25z"/>
	</g>
	<g id="keyboardFrame">
		<polygon fill-rule="evenodd" fill="#ECECEC" points="296.25,225.75 82.5,225.75 56.25,252 56.25,254.25 318.75,254.25 318.75,252 
					"/>
	</g>
	<g id="touchPad">
		<g>
			<polygon fill-rule="evenodd" fill="#B9B9B9" points="165.776,252.25 169.072,245 205.928,245 209.224,252.25 			"/>
		</g>
		<g>
			<path fill="#9F9F9F" d="M205.606,245.5l2.841,6.25h-41.894l2.841-6.25H205.606 M206.25,244.5h-37.5l-3.75,8.25h45L206.25,244.5
				L206.25,244.5z"/>
		</g>
	</g>
	<g id="touchPadShadow">
		<polygon fill-rule="evenodd" fill="#868686" points="205.5,245.25 171,245.25 169.5,245.25 168.75,246.75 168.833,246.75 
			166.5,252 168,252 170.333,246.75 206.25,246.75 		"/>
	</g>
	<g id="keyboard">
		<polygon fill-rule="evenodd" fill="#202020" points="291.75,228 86.25,228 71.25,243.75 305.25,243.75 		"/>
	</g>
	<g id="keyboardShadow">
		<polygon fill="#070707" points="294,231 291,228 89.25,228 86.25,228 83.25,231 83.393,231 71.25,243.75 74.25,243.75 86.393,231 
					"/>
	</g>
</g>
<g id="top_1_">
	<g id="screenFrame">
		<path fill-rule="evenodd" fill="#202020" d="M292.5,113.25H86.25c-2.071,0-3.75,1.679-3.75,3.75v108.75h213.75V117
			C296.25,114.929,294.571,113.25,292.5,113.25z"/>
	</g>
	<g id="screen">
		<rect x="93.75" y="124.5" fill-rule="evenodd" fill="#52C8FF" width="191.25" height="90"/>
	</g>
	<g id="screenShadow">
		<polygon fill-rule="evenodd" fill="#1F95CC" points="93.75,124.5 93.75,214.5 96,214.5 96,126.75 285,126.75 285,124.5 		"/>
	</g>
</g>
</svg>
