<?xml version="1.0" encoding="utf-8"?>
<!-- Generator: Adobe Illustrator 18.0.0, SVG Export Plug-In . SVG Version: 6.00 Build 0)  -->
<svg version="1.2" baseProfile="tiny" id="notebook_1_"
	 xmlns="http://www.w3.org/2000/svg" xmlns:xlink="http://www.w3.org/1999/xlink" x="0px" y="0px" viewBox="0 0 119.25 52.5"
	 xml:space="preserve">
<g id="bookLining">
	<path fill-rule="evenodd" fill="#0C0000" d="M111.75,34.5V36H8.25c-4.142,0-7.5,3.358-7.5,7.5c0,4.142,3.358,7.5,7.5,7.5h103.5
		v-0.75c0.088-0.021,6-0.15,6-9C117.75,33.638,111.75,34.5,111.75,34.5z"/>
</g>
<g id="bookCover">
	<path fill-rule="evenodd" fill="#8B5C20" d="M9,36.01V36h103.5v-2.25h-0.538C110.932,32.315,87.75,0,87.75,0H33
		c0,0-2.612-0.009-3.75,0.75c-0.829,0.553-1.269,1.274-1.927,1.994L4.649,35.038C1.871,36.665,0,39.673,0,43.125
		C0,48.303,4.197,52.5,9.375,52.5H112.5v-2.25H9v-0.01c-3.761-0.195-6.75-3.306-6.75-7.115C2.25,39.316,5.239,36.205,9,36.01z"/>
</g>
<g id="book">
	<rect x="7.5" y="39" fill-rule="evenodd" fill="#868686" width="105" height="11.25"/>
</g>
<g id="bookShadow">
	<rect x="7.5" y="39" fill-rule="evenodd" fill="#535353" width="105" height="3.75"/>
</g>
<g id="bookFront">
	<path fill-rule="evenodd" fill="#3F1000" d="M109.5,36c0-0.074-99,0-99,0l-3,3h105C112.5,39,109.5,36.074,109.5,36z M7.5,50.25h105
		v-1.5H7.5V50.25z"/>
</g>
<g id="bookFrontShadow">
	<polygon fill-rule="evenodd" fill="#250000" points="109.5,36 10.5,36 7.5,39 112.5,39 	"/>
</g>
<g id="flap">
	<path fill="#8B5C20" d="M116.236,33h0.014L93.52,2.694c-0.337-0.43-1.037-1.241-2.02-1.944C90.635,0.132,89.471,0.017,88.881,0
		H88.5H72.75L93,31.821v1.929v0.75h19.753c2.511,1.212,4.247,3.775,4.247,6.75v1.5c0,4.142-3.358,7.5-7.5,7.5H98.25
		c-0.307,0-0.609-0.024-0.906-0.06c1.365,1.421,3.28,2.31,5.406,2.31h9c4.142,0,7.5-3.358,7.5-7.5v-6
		C119.25,36.543,118.063,34.368,116.236,33z"/>
</g>
<g id="flapShadow">
	<polygon fill-rule="evenodd" fill="#582900" points="114,34.5 95.25,34.5 72.75,0 72.75,3 93.75,36 114.75,36 	"/>
</g>
<g id="button">
	<path fill-rule="evenodd" fill="#3F1000" d="M95.964,15.651c-1.373-1.747-3.959-2.901-6.03-2.901c-2.071,0-3.518,1.154-3.168,2.901
		c0.451,2.246,3.584,4.599,6.868,4.599C96.917,20.25,97.729,17.897,95.964,15.651z"/>
</g>
<g id="buttonShadow">
	<path fill-rule="evenodd" fill="#250000" d="M92.25,20.25c-3.575-0.398-5.25-4.5-5.25-4.5L87.75,18c0,0,1.557,2.71,4.5,3
		c2.972,0.293,4.5-0.75,4.5-0.75v-1.5C96.759,18.742,95.92,20.659,92.25,20.25z"/>
</g>
<g id="string">
	<path fill="#250000" d="M86.135,8.172c0.739,0,1.591,0.326,1.738,0.87c0.233,0.865,0.662,2.066,1.38,2.873
		c0.052,0.058,0.099,0.121,0.143,0.187c-0.447,0.112-0.929,0.273-1.38,0.523c-0.16,0.089-0.337,0.215-0.504,0.347
		c-0.422-0.848-1.148-1.951-2.265-2.59c-0.05-0.028-0.2-0.248-0.244-0.704c-0.063-0.654,0.141-1.217,0.248-1.312
		C85.463,8.243,85.786,8.172,86.135,8.172 M97.557,19.186c0.299,0.071,0.612,0.176,0.81,0.338c0.202,0.165,0.362,0.32,0.51,0.464
		c0.486,0.469,0.989,0.954,2.136,1.234c0.432,0.106,0.72,0.345,0.906,0.754c0.344,0.756,0.204,1.739,0.09,2.078
		c-0.6,0.416-1.398,0.644-2.265,0.644c-1.419,0-2.564-0.586-2.853-1.152c-0.27-0.53-0.706-1.218-1.297-2.049
		c0.422-0.298,0.856-0.743,1.358-1.375l0.146-0.182C97.351,19.628,97.477,19.449,97.557,19.186 M86.135,7.172
		c-0.512,0-1.004,0.108-1.385,0.328c-0.941,0.543-1.082,3.131,0,3.75c0.875,0.501,1.51,1.428,1.907,2.25H19.5v0.75h67.47
		c0.134,0.387,0.127,0.562,0.156,0.562c0.031,0,0.104-0.202,0.439-0.562c0,0,0.578-0.553,0.935-0.75
		c0.786-0.435,1.761-0.556,2.32-0.654c-0.202-0.485-0.373-1.095-0.82-1.596c-0.477-0.535-0.884-1.438-1.161-2.468
		C88.554,7.726,87.295,7.172,86.135,7.172L86.135,7.172z M96.75,18c-0.197,1.111-0.004,0.776-0.58,1.5
		c-0.981,1.233-1.485,1.468-2.029,1.5H14.25v0.75h80.294C95.002,22.379,95.64,23.293,96,24c0.515,1.012,2.094,1.698,3.744,1.698
		c1.061,0,2.151-0.284,3.006-0.948c0.439-0.341,1.01-3.887-1.5-4.5c-1.215-0.297-1.419-0.82-2.25-1.5
		C98.221,18.113,96.877,18.109,96.75,18L96.75,18z"/>
</g>
</svg>
