<?xml version="1.0" encoding="utf-8"?>
<!-- Generator: Adobe Illustrator 18.0.0, SVG Export Plug-In . SVG Version: 6.00 Build 0)  -->
<svg version="1.2" baseProfile="tiny" xmlns="http://www.w3.org/2000/svg" xmlns:xlink="http://www.w3.org/1999/xlink" x="0px"
	 y="0px" viewBox="0 0 67.5 67.5" xml:space="preserve">
<g id="BG_1_">
	<g id="BG">
		<rect fill-rule="evenodd" fill="#070707" width="67.5" height="67.5"/>
	</g>
</g>
<g id="book_1_">
	<g id="page">
		<path fill="#FFFFFF" d="M54.141,17.698v2.669v2.812h2.109V42.93l-0.118,0.036l-7.107,2.168l-15.275,4.66l-15.335-4.678
			l-7.048-2.15L11.25,42.93V23.18h2.109v-2.812v-2.669l19.651,5.359l0.74,0.202l0.74-0.202L54.141,17.698 M56.953,14.016
			L33.75,20.344l-23.203-6.328v6.352H8.438v31.641h16.898l2.086,2.086h12.656l2.086-2.086h16.898V20.367h-2.109V14.016
			L56.953,14.016z M49.846,47.824l7.107-2.168v0.75C56.953,46.406,53.749,47.045,49.846,47.824L49.846,47.824z M17.595,47.806
			c-3.877-0.771-7.048-1.4-7.048-1.4v-0.75L17.595,47.806L17.595,47.806z"/>
	</g>
	<g id="lines">
		<path fill-rule="evenodd" fill="#FFFFFF" d="M16.875,31.641l12.656,4.219V33.75l-12.656-4.219V31.641z M37.969,27.422v2.109
			l12.656-4.219v-2.109L37.969,27.422z M16.875,37.969l12.656,4.219v-2.109l-12.656-4.219V37.969z M16.875,25.313l12.656,4.219
			v-2.109l-12.656-4.219V25.313z M37.969,35.859l12.656-4.219v-2.109L37.969,33.75V35.859z M37.969,42.188l12.656-4.219v-2.109
			l-12.656,4.219V42.188z"/>
	</g>
</g>
</svg>
