<?xml version="1.0" encoding="utf-8"?>
<!-- Generator: Adobe Illustrator 18.0.0, SVG Export Plug-In . SVG Version: 6.00 Build 0)  -->
<svg version="1.2" baseProfile="tiny" xmlns="http://www.w3.org/2000/svg" xmlns:xlink="http://www.w3.org/1999/xlink" x="0px"
	 y="0px" viewBox="0 0 67.5 67.5" xml:space="preserve">
<g id="BG_1_">
	<g id="BG">
		<rect fill-rule="evenodd" fill="#070707" width="67.5" height="67.5"/>
	</g>
</g>
<g id="folder_1_">
	<g id="folder">
		<path fill-rule="evenodd" fill="#FFFFFF" d="M53.004,27.422l-7.916-13.711L26.533,24.424l-1.22-1.22h-8.438l-4.219,4.219v27.422
			h44.297V27.422H53.004z M42.039,50.625H27.571c-0.097-0.454-0.149-0.925-0.149-1.406c0-3.883,3.305-7.031,7.383-7.031
			c-2.446,0-4.43-1.889-4.43-4.219s1.983-4.219,4.43-4.219s4.43,1.889,4.43,4.219s-1.983,4.219-4.43,4.219
			c4.077,0,7.383,3.148,7.383,7.031C42.188,49.7,42.136,50.171,42.039,50.625z M27.422,27.422l16.875-10.547l6.328,10.547H27.422z"
			/>
	</g>
</g>
</svg>
