<?xml version="1.0" encoding="utf-8"?>
<!-- Generator: Adobe Illustrator 18.0.0, SVG Export Plug-In . SVG Version: 6.00 Build 0)  -->
<svg version="1.2" baseProfile="tiny" xmlns="http://www.w3.org/2000/svg" xmlns:xlink="http://www.w3.org/1999/xlink" x="0px"
	 y="0px" viewBox="0 0 375 375" xml:space="preserve">
<g id="BG_1_">
	<g id="BG">
		<rect fill-rule="evenodd" fill="#070707" width="375" height="375"/>
	</g>
</g>
<g id="funnel_1_">
	<g id="funnel">
		<path fill="#FFFFFF" d="M169.698,299.958l35.156-35.156V135.896l93.75-93.75l-23.438-23.438H99.385L75.948,42.146l93.75,93.75
			v93.75V299.958z M122.823,77.302c1.512,0-35.156-35.156-35.156-35.156l11.719-11.719h175.781l11.719,11.719
			c0,0-35.62,35.156-35.156,35.156C251.842,77.302,122.631,77.302,122.823,77.302z M207.785,321.303c0,0-9.369-4.392-13.995-12.345
			c-5.638-9.692-3.774-18.201-3.774-18.201s-5.483,6.484-8.333,14.957c-6.676,19.842-4.559,33.158-4.559,33.158
			c1.523,7.411,6.19,14.551,14.939,16.895c10.03,2.688,20.326-3.212,22.996-13.177C217.243,334.436,214.662,325.541,207.785,321.303
			z"/>
	</g>
</g>
</svg>
