<?xml version="1.0" encoding="utf-8"?>
<!-- Generator: Adobe Illustrator 18.0.0, SVG Export Plug-In . SVG Version: 6.00 Build 0)  -->
<svg version="1.2" baseProfile="tiny" xmlns="http://www.w3.org/2000/svg" xmlns:xlink="http://www.w3.org/1999/xlink" x="0px"
	 y="0px" viewBox="0 0 67.5 67.5" xml:space="preserve">
<g id="BG_1_">
	<g id="BG">
		<rect fill-rule="evenodd" fill="#070707" width="67.5" height="67.5"/>
	</g>
</g>
<g id="questionMark_1_">
	<g id="questionMark">
		<path fill="#FFFFFF" d="M50.625,21.094c0-8.52-8.438-12.656-14.766-12.656c-0.708,0-1.25,0-1.672,0c0.005,0-0.114,0-0.438,0
			c-6.328,0-14.766,2.966-14.766,12.656c0,2.33,1.889,4.219,4.219,4.219s4.219-1.889,4.219-4.219c0-1.129-0.45-2.149-1.173-2.907
			c3.811-5.329,18.046-4.483,18.048,2.907c0.002,12.051-11.496,12.661-12.568,18.126c-0.001,0.006-0.002,0.012-0.003,0.018
			c-0.052,0.269-0.086,0.546-0.085,0.84c0,2.33,1.889,4.219,4.219,4.219s4.219-1.889,4.219-4.219c0-1.086-0.422-2.067-1.096-2.814
			C41.978,33.373,50.625,31.559,50.625,21.094z M35.859,50.625c-2.33,0-4.219,1.889-4.219,4.219s1.889,4.219,4.219,4.219
			s4.219-1.889,4.219-4.219S38.189,50.625,35.859,50.625z"/>
	</g>
</g>
</svg>
