<svg xmlns="http://www.w3.org/2000/svg" xmlns:xlink="http://www.w3.org/1999/xlink" version="1.1" x="0px" y="0px" viewBox="0 0 375 375" xml:space="preserve" class="style0"><style>.style0{enable-background:	new 0 0 375 375;}</style><style type="text/css">.st0{enable-background:new    ;}.st1{fill-rule:evenodd;clip-rule:evenodd;fill:#ECECEC;}.st2{fill-rule:evenodd;clip-rule:evenodd;fill:#82B4FE;}.st3{fill-rule:evenodd;clip-rule:evenodd;fill:#6ABF59;}.st4{fill-rule:evenodd;clip-rule:evenodd;fill:#573100;}.st5{fill-rule:evenodd;clip-rule:evenodd;fill:#714B0F;}.st6{fill-rule:evenodd;clip-rule:evenodd;fill:#3E1800;}.st7{fill-rule:evenodd;clip-rule:evenodd;fill:#868686;}.st8{fill-rule:evenodd;clip-rule:evenodd;fill:#9F9F9F;}.st9{fill-rule:evenodd;clip-rule:evenodd;fill:#6D6D6D;}.st10{fill-rule:evenodd;clip-rule:evenodd;fill:#8A6428;}.st11{fill-rule:evenodd;clip-rule:evenodd;fill:#A47E42;}.st12{fill-rule:evenodd;clip-rule:evenodd;fill:#B9B9B9;}.st13{fill-rule:evenodd;clip-rule:evenodd;fill:#D2D2D2;}.st14{fill:#FFFFFF;}.st15{fill-rule:evenodd;clip-rule:evenodd;fill:#FBB672;}</style><g class="st0"><g><g><circle class="st1" cx="187.5" cy="187.5" r="187.5"/></g></g></g><g><g><g><rect x="77.25" y="107.25" class="st2" width="219.75" height="141.75"/></g></g><g><g><rect x="77.25" y="249" class="st3" width="221.25" height="18.75"/></g></g><g><g><g><polygon class="st4" points="112.805,183.093 82.5,249 143.25,249"/></g></g><g><g><polygon class="st5" points="113.25,183 141.75,249 157.5,249"/></g></g><g><g><polygon class="st6" points="68.25,249 84,249 112.5,183"/></g></g><g><g><path class="st7" d="M117 189.75c-1.612-3.563-3.75-6-3.75-6s-2.783 2.567-4.5 6c-4.549 9.098-11.25 25.5-11.25 25.5l8.25 6.75 l7.636-6l7.364 6l6.75-6.75C127.5 215.25 121.138 198.897 117 189.75z"/></g></g><g><g><polygon class="st8" points="113.386,183.094 127.559,215.25 139.5,222.187"/></g></g><g><g><polygon class="st9" points="86.25,222 99,216 112.5,183"/></g></g><g><g><polygon class="st10" points="199.06,144.07 161.25,249 236.25,249"/></g></g><g><g><polygon class="st5" points="198.75,144 235.5,249 273,249"/></g></g><g><g><polygon class="st11" points="124.5,249 162.75,249 198.75,144"/></g></g><g><g><polygon class="st1" points="163.5,193.848 184.074,186 198.75,186 198.75,144"/></g></g><g><g><polygon class="st12" points="198.75,144 198.75,185.704 205.744,193.151 213.426,185.704 234,193.5"/></g></g><g><g><polygon class="st13" points="199.055,144.07 184.5,186 191.25,193.852 198.75,186 205.5,193.5 212.25,186"/></g></g></g><g><g><path class="st14" d="M297.5 107.5v160h-220v-160H297.5 M307.5 97.5h-240v180h240V97.5L307.5 97.5z"/></g></g><g><g><circle class="st15" cx="150.375" cy="161.625" r="13.125"/></g></g></g></svg>