<svg version="1.1" xmlns="http://www.w3.org/2000/svg" x="0px" y="0px" viewBox="0 0 391.5 391.5" xml:space="preserve" enable-background="new 0 0 391.5 391.5"><style type="text/css">
	.st0{enable-background:new    ;}
	.st1{fill-rule:evenodd;clip-rule:evenodd;fill:#EC3030;}
	.st2{fill-rule:evenodd;clip-rule:evenodd;fill:#FFFFFF;}
</style><g class="st0"><rect class="st1" width="391.5" height="391.5"/></g><g class="st0"><path class="st2" d="M126.887 263.025c-36.447 0-65.993-30.12-65.993-67.275h-5.738c0 40.386 32.115 73.125 71.732 73.125 25.466 0 47.803-13.547 60.529-33.939l-4.777-3.246C170.94 250.51 150.36 263.025 126.887 263.025zM264.613 122.625c-26.321 0-49.286 14.48-61.763 36.025l4.753 3.23c11.444-19.975 32.682-33.405 57.01-33.405 36.447 0 65.993 30.12 65.993 67.275 0 37.155-29.546 67.275-65.993 67.275 -36.447 0-65.994-30.12-65.994-67.275 0-40.386-32.116-73.125-71.732-73.125 -39.617 0-71.732 32.739-71.732 73.125h5.738c0-37.155 29.546-67.275 65.993-67.275 36.447 0 65.994 30.12 65.994 67.275 0 40.386 32.116 73.125 71.732 73.125 39.617 0 71.732-32.739 71.732-73.125v0C336.345 155.364 304.229 122.625 264.613 122.625z"/></g></svg>