<svg xmlns="http://www.w3.org/2000/svg" xmlns:xlink="http://www.w3.org/1999/xlink" version="1.1" x="0px" y="0px" viewBox="0 0 375 382.5" xml:space="preserve" class="style0"><style>.style0{enable-background:	new 0 0 375 382.5;}</style><style type="text/css">.st0{fill:#C03224;}.st1{fill:#F36557;}.st2{fill-rule:evenodd;clip-rule:evenodd;fill:#F36557;}.st3{fill-rule:evenodd;clip-rule:evenodd;fill:#C03224;}.st4{fill-rule:evenodd;clip-rule:evenodd;fill:#FFFFFF;}.st5{opacity:0.702;}.st6{fill-rule:evenodd;clip-rule:evenodd;fill:#FFCBBD;}.st7{fill-rule:evenodd;clip-rule:evenodd;fill:#FFE4D6;}.st8{fill-rule:evenodd;clip-rule:evenodd;fill:#FFB2A4;}.st9{fill-rule:evenodd;clip-rule:evenodd;fill:#740000;}.st10{fill-rule:evenodd;clip-rule:evenodd;fill:#DA4C3E;}.st11{fill-rule:evenodd;clip-rule:evenodd;fill:#A7190B;}.st12{fill-rule:evenodd;clip-rule:evenodd;fill:#FF988A;}.st13{fill-rule:evenodd;clip-rule:evenodd;fill:#FF7F71;}</style><g><g><g><path class="st0" d="M187.5 22.5c46.076 0 89.395 17.943 121.976 50.524S360 148.924 360 195s-17.943 89.395-50.524 121.976 S233.576 367.5 187.5 367.5s-89.395-17.943-121.976-50.524S15 241.076 15 195s17.943-89.395 50.524-121.976 S141.424 22.5 187.5 22.5 M187.5 7.5C83.947 7.5 0 91.447 0 195s83.947 187.5 187.5 187.5S375 298.553 375 195 S291.053 7.5 187.5 7.5L187.5 7.5z"/></g></g><g><g><path class="st1" d="M187.5 15c46.076 0 89.395 17.943 121.976 50.524S360 141.424 360 187.5s-17.943 89.395-50.524 121.976 S233.576 360 187.5 360s-89.395-17.943-121.976-50.524S15 233.576 15 187.5S32.943 98.105 65.524 65.524S141.424 15 187.5 15 M187.5 0C83.947 0 0 83.947 0 187.5S83.947 375 187.5 375S375 291.053 375 187.5S291.053 0 187.5 0L187.5 0z"/></g></g></g><g><g><g><g><polygon class="st2" points="244.5,63.75 86.25,63.75 86.25,311.25 288.75,311.25 288.75,113.25"/></g></g><g><g><polygon class="st3" points="244.5,63.75 244.5,113.25 288,113.25"/></g></g><g><g><path class="st4" d="M225 86.25H112.5v7.5H225V86.25z M112.5 261h150v-7.5h-150V261z M225 114H112.5v7.5H225V114z M112.5 288.75 h150v-7.5h-150V288.75z M112.5 141.75v7.5h150v-7.5H112.5z M112.5 177h150v-7.5h-150V177z M112.5 205.5h150V198h-150V205.5z M112.5 233.25h150v-7.5h-150V233.25z"/></g></g></g><g class="st5"><g><path class="st3" d="M341.175 224.079c-1.046-3.148-3.271-5.27-7.174-5.274l-11.864-0.014l-6.591-0.008l-174.01-0.207 l-22.606 8.209l-6.383 2.288l0.041 0.015l-0.01 0.003l28.983 10.548l174.01 0.207l6.591 0.008l11.864 0.014 c4.011 0.005 6.112-1.966 7.112-5.257l0.049 0c0.511-1.549 0.738-3.346 0.736-5.265 C341.921 227.427 341.69 225.629 341.175 224.079z"/></g></g><g><g><g><polygon class="st6" points="135.316,222.308 136.097,215.843 130.092,213.285 132.004,206.168 112.382,229.518 142.452,224.215"/></g></g><g><g><polygon class="st7" points="116.639,224.295 130.139,213.253 132.034,206.184"/></g></g><g><g><polygon class="st8" points="135.371,222.314 119.196,228.275 142.342,224.264"/></g></g><g><g><polygon class="st9" points="116.826,224.232 112.346,229.518 119.177,228.292"/></g></g><g><g><polygon class="st3" points="281.298,120.211 132.004,206.168 130.092,213.285 136.097,215.843 135.316,222.308 142.452,224.215 291.745,138.257"/></g></g><g><g><polygon class="st10" points="281.298,120.211 132.004,206.168 130.092,213.285 283.91,124.723"/></g></g><g><g><polygon class="st11" points="289.133,133.746 135.316,222.308 142.452,224.215 291.745,138.257"/></g></g><g><g><polygon class="st7" points="286.953,116.955 281.298,120.211 283.91,124.723 289.565,121.467"/></g></g><g><g><polygon class="st6" points="289.565,121.467 283.91,124.723 289.133,133.746 294.789,130.49"/></g></g><g><g><polygon class="st8" points="294.789,130.49 289.133,133.746 291.745,138.257 297.401,135.001"/></g></g><g><g><path class="st8" d="M297.132 111.094l-10.179 5.861l2.612 4.512l16.328-9.401C303.438 109.884 300.48 109.166 297.132 111.094z "/></g></g><g><g><path class="st12" d="M309.142 116.21c-0.952-1.644-2.04-3.071-3.249-4.145l-16.328 9.401l5.224 9.023l16.328-9.401 C310.789 119.507 310.094 117.854 309.142 116.21z"/></g></g><g><g><path class="st13" d="M311.075 121.113l-16.287 9.377l2.612 4.512l10.179-5.861C311.021 127.159 311.846 124.43 311.075 121.113 z"/></g></g></g></g></svg>