<?xml version="1.0" encoding="utf-8"?>
<!-- Generator: Adobe Illustrator 18.0.0, SVG Export Plug-In . SVG Version: 6.00 Build 0)  -->
<!DOCTYPE svg PUBLIC "-//W3C//DTD SVG 1.1//EN" "http://www.w3.org/Graphics/SVG/1.1/DTD/svg11.dtd">
<svg version="1.1" id="Layer_1" xmlns="http://www.w3.org/2000/svg" xmlns:xlink="http://www.w3.org/1999/xlink" x="0px" y="0px"
	 viewBox="0 0 400 400" style="enable-background:new 0 0 400 400;" xml:space="preserve">
<style type="text/css">
	.st0{fill:#F79830;}
</style>
<path class="st0" d="M248.388,128.597c-6.104-8.076-15.197-13.239-27.261-15.505l-5.528-1.027
	c-12.979-2.424-24.3-1.266-33.939,3.535l-0.107,0.488c1.369,14.471,7.481,27.234,18.333,38.287l13.912,14.555
	c15.463-5.765,28.429-12.007,38.869-18.718l4.961-4.273l0.092-0.505C254.879,144.891,251.759,139.281,248.388,128.597z"/>
<path class="st0" d="M213.694,225.078c-3.668-3.11-7.426-7.107-11.281-11.989c-16.164,12.315-25.562,25.469-28.178,39.454
	l-0.281,1.528c-1.382,7.364,0.161,13.013,4.614,16.977c7.947,9.873,17.928,16.797,29.938,20.674
	c1.291,0.935,3.917,1.777,7.854,2.518l6.033,1.119c11.466,2.146,20.253-1.229,26.346-10.141l2.317-6.854l0.376-1.995
	C253.926,263.046,241.34,245.937,213.694,225.078z"/>
<path class="st0" d="M329.151,47.058L159.887,13.139c-26.182-5.23-51.651,11.731-56.889,37.92L53.91,296.037
	c-5.246,26.192,11.73,51.647,37.898,56.906l169.269,33.912c26.178,5.251,51.651-11.725,56.9-37.906l49.091-244.996
	C372.306,77.786,355.335,52.309,329.151,47.058z M302.942,139.926c-2.918,15.653-19.661,30.039-50.195,43.132
	c-7.132,3.359-12.437,6.689-15.919,10.034c3.002,6.191,11.212,15.194,24.595,26.96c20.951,17.79,29.504,36.903,25.69,57.323
	l-0.481,2.509c-4.049,21.707-19.374,36.879-45.94,45.482c-11.358,2.753-22.18,3.157-32.487,1.239l-6.532-1.239
	c-15.821-2.96-24.919-8.123-27.27-15.495c-2.875-2.629-9.405-5.727-19.567-9.392c-16.356-14.494-22.706-31.475-19.074-50.895
	l0.555-3.007c3.972-21.183,17.506-40.668,40.587-58.457l0.105-0.499c-27.687-29.973-39.621-55.076-35.835-75.356l0.667-3.51
	c2.036-10.977,6.585-19.477,13.606-25.562c16.692-8.996,38.219-11.046,64.602-6.099l5.013,0.939
	c34.51,6.436,59.44,19.613,74.803,39.468C303.358,124.75,304.385,132.217,302.942,139.926z"/>
</svg>
