<svg xmlns="http://www.w3.org/2000/svg" xmlns:xlink="http://www.w3.org/1999/xlink" version="1.1" x="0px" y="0px" viewBox="0 0 67.5 67.5" xml:space="preserve" class="style0"><style>.style0{enable-background:	new 0 0 67.5 67.5;}</style><style type="text/css">.st0{fill-rule:evenodd;clip-rule:evenodd;fill:#535353;}</style><g><g><path class="st0" d="M16.875 31.641l12.656 4.219V33.75l-12.656-4.219V31.641z M16.875 25.313l12.656 4.219v-2.109l-12.656-4.219 V25.313z M16.875 37.969l12.656 4.219v-2.109l-12.656-4.219V37.969z M37.969 42.188l12.656-4.219v-2.109l-12.656 4.219V42.188z M37.969 29.531l12.656-4.219v-2.109l-12.656 4.219V29.531z M37.969 35.859l12.656-4.219v-2.109L37.969 33.75V35.859z M56.953 20.367v-6.352L33.75 20.344l-23.203-6.328v6.352H8.438v31.641h16.898l2.086 2.086h12.656l2.086-2.086h16.898V20.367 H56.953z M10.547 46.406v-0.75l7.048 2.15C13.718 47.035 10.547 46.406 10.547 46.406z M33.75 50.25l-22.5-6.75V23.25h2.25V18 l20.25 5.25L54 18v5.25h2.25V43.5L33.75 50.25z M56.953 46.406c0 0-3.204 0.639-7.107 1.418l7.107-2.168V46.406z"/></g></g></svg>