<svg xmlns="http://www.w3.org/2000/svg" xmlns:xlink="http://www.w3.org/1999/xlink" version="1.1" x="0px" y="0px" viewBox="0 0 67.5 67.5" xml:space="preserve" class="style0"><style>.style0{enable-background:	new 0 0 67.5 67.5;}</style><style type="text/css">.st0{fill-rule:evenodd;clip-rule:evenodd;fill:#FFFFFF;}</style><g><g><path class="st0" d="M53.004 27.422l-7.916-13.711L26.533 24.424l-1.22-1.22h-8.438l-4.219 4.219v27.422h44.297V27.422H53.004z M42.039 50.625H27.571c-0.097-0.454-0.149-0.925-0.149-1.406c0-3.883 3.305-7.031 7.383-7.031c-2.446 0-4.43-1.889-4.43-4.219 s1.983-4.219 4.43-4.219s4.43 1.889 4.43 4.219s-1.983 4.219-4.43 4.219c4.077 0 7.383 3.148 7.383 7.031 C42.188 49.7 42.136 50.171 42.039 50.625z M27.422 27.422l16.875-10.547l6.328 10.547H27.422z"/></g></g></svg>