<svg xmlns="http://www.w3.org/2000/svg" xmlns:xlink="http://www.w3.org/1999/xlink" version="1.1" x="0px" y="0px" viewBox="0 0 67.5 67.5" xml:space="preserve" class="style0"><style>.style0{enable-background:	new 0 0 67.5 67.5;}</style><style type="text/css">.st0{fill-rule:evenodd;clip-rule:evenodd;fill:#FFFFFF;}</style><g><g><path class="st0" d="M36.874 47.664V24.461L53.749 7.586L49.53 3.367H17.889l-4.219 4.219l16.875 16.875v29.531L36.874 47.664z M22.108 13.914c0.272 0-6.328-6.328-6.328-6.328l2.109-2.109H49.53l2.109 2.109c0 0-6.411 6.328-6.328 6.328 C45.332 13.914 22.074 13.914 22.108 13.914z M37.401 57.835c0 0-1.686-0.791-2.519-2.222c-1.015-1.745-0.679-3.276-0.679-3.276 s-0.987 1.167-1.5 2.692c-1.202 3.572-0.821 5.968-0.821 5.968c0.274 1.334 1.114 2.619 2.689 3.041 c1.805 0.484 3.659-0.578 4.139-2.372C39.104 60.198 38.639 58.597 37.401 57.835z"/></g></g></svg>