<?xml version="1.0" encoding="utf-8"?>
<!-- Generator: Adobe Illustrator 18.0.0, SVG Export Plug-In . SVG Version: 6.00 Build 0)  -->
<svg version="1.2" baseProfile="tiny" xmlns="http://www.w3.org/2000/svg" xmlns:xlink="http://www.w3.org/1999/xlink" x="0px"
	 y="0px" viewBox="0 0 67.5 67.5" xml:space="preserve">
<g id="BG_1_">
	<g id="BG">
		<rect fill-rule="evenodd" fill="#070707" width="67.5" height="67.5"/>
	</g>
</g>
<g id="envelop_1_">
	<g id="envelop">
		<path fill-rule="evenodd" fill="#FFFFFF" d="M50.625,21.094v4.219h4.219L50.625,21.094z M37.969,35.859l10.547-8.438V14.766
			H18.984v12.656l10.547,8.438H37.969z M23.203,16.875h21.094v2.109H23.203V16.875z M23.203,21.094h21.094v2.109H23.203V21.094z
			 M23.203,25.313h21.094v2.109H23.203V25.313z M27.422,29.531h12.656v2.109H27.422V29.531z M14.766,54.844h37.969L33.75,37.969
			L14.766,54.844z M54.844,54.844V27.422L37.969,40.078L54.844,54.844z M16.875,21.094l-4.219,4.219h4.219V21.094z M12.656,27.422
			v27.422l16.875-14.766L12.656,27.422z"/>
	</g>
</g>
</svg>
