<svg version="1.1" xmlns="http://www.w3.org/2000/svg" x="0" y="0" viewBox="0 0 67.5 67.5" xml:space="preserve" enable-background="new 0 0 67.5 67.5"><style type="text/css">
	.st0{fill-rule:evenodd;clip-rule:evenodd;fill:#FFFFFF;}
</style><path class="st0" d="M54.844 54.844V27.422L37.969 40.078 54.844 54.844zM50.625 21.094v4.219h4.219L50.625 21.094zM12.656 27.422v27.422l16.875-14.766L12.656 27.422zM37.969 35.859l10.547-8.438V14.766H18.984v12.656l10.547 8.438H37.969zM23.203 16.875h21.094v2.109H23.203V16.875zM23.203 21.094h21.094v2.109H23.203V21.094zM23.203 25.313h21.094v2.109H23.203V25.313zM27.422 29.531h12.656v2.109H27.422V29.531zM16.875 21.094l-4.219 4.219h4.219V21.094zM14.766 54.844h37.969L33.75 37.969 14.766 54.844z"/></svg>