<svg version="1.1" xmlns="http://www.w3.org/2000/svg" x="0" y="0" viewBox="0 0 67.5 67.5" xml:space="preserve" enable-background="new 0 0 67.5 67.5"><style type="text/css">
	.st0{fill-rule:evenodd;clip-rule:evenodd;fill:#535353;}
</style><path class="st0" d="M50.625 21.094c0-8.52-8.438-12.656-14.766-12.656 -0.708 0-1.25 0-1.672 0 0.005 0-0.114 0-0.438 0 -6.328 0-14.766 2.966-14.766 12.656 0 2.33 1.889 4.219 4.219 4.219s4.219-1.889 4.219-4.219c0-1.129-0.45-2.149-1.173-2.907 3.812-5.329 18.046-4.483 18.048 2.907 0.002 12.051-11.496 12.661-12.568 18.126 -0.001 0.006-0.002 0.012-0.004 0.018 -0.051 0.269-0.086 0.546-0.085 0.84 0 2.33 1.889 4.219 4.219 4.219s4.219-1.889 4.219-4.219c0-1.086-0.422-2.067-1.096-2.814C41.978 33.373 50.625 31.559 50.625 21.094zM35.859 50.625c-2.33 0-4.219 1.889-4.219 4.219s1.889 4.219 4.219 4.219 4.219-1.889 4.219-4.219S38.189 50.625 35.859 50.625z"/></svg>